<svg width="35" height="40" viewBox="0 0 35 40" fill="none" xmlns="http://www.w3.org/2000/svg">
<path d="M33.9625 12.7068C32.3516 5.27129 25.4858 -0.199772 17.7065 0.00649763H7.26855V7.27506H17.7065C22.084 7.131 25.8918 9.98276 26.8675 14.2751C27.7777 18.3973 25.8132 22.5718 21.9792 24.3922C20.6794 25.0175 19.2355 25.4301 17.7097 25.5218L17.1957 25.5349V32.7412C17.1957 32.7412 17.5821 32.7347 17.7097 32.7314C19.3959 32.6594 22.025 32.4531 24.3038 31.317C31.5135 28.4554 35.7665 20.2864 33.9658 12.7101L33.9625 12.7068Z" fill="#AC9C8D"/>
<path d="M17.1924 39.9411V32.7413C16.8159 32.7184 16.3412 32.6496 15.981 32.5514C14.7041 32.2469 13.5156 31.782 12.4482 31.0878C9.24613 29.0579 7.24564 25.3581 7.26856 21.5209V7.27185H0V21.5176C0 24.8965 0.929852 28.2164 2.62912 31.0846C3.40837 32.4008 4.35131 33.6253 5.43832 34.709C8.48654 37.7572 12.0259 39.1979 17.1924 39.9935" fill="#AC9C8D"/>
</svg>
